<svg preserveAspectRatio="none" width="100%" height="100%" overflow="visible" style="display: block;" viewBox="0 0 16 16" fill="none" xmlns="http://www.w3.org/2000/svg">
<g id="IconBluesky">
<path id="Vector" d="M8.0008 7.63567C7.38587 6.35931 5.71047 3.98089 4.15308 2.8077C3.02935 1.9614 1.20833 1.30635 1.20833 3.39037C1.20833 3.80641 1.44607 6.8868 1.58574 7.38687C2.07055 9.12533 3.83765 9.56873 5.40947 9.30047C2.66192 9.76953 1.96315 11.3233 3.47256 12.8771C6.33919 15.8282 7.5928 12.1367 7.9138 11.1909C7.9732 11.0162 8.0008 10.9351 8.0008 11.0069C8.0008 10.9351 8.0284 11.0162 8.0878 11.1909C8.4088 12.1367 9.6624 15.8282 12.5291 12.8771C14.0385 11.3233 13.3397 9.76953 10.5921 9.30047C12.1639 9.56873 13.9311 9.12533 14.4159 7.38687C14.5555 6.8868 14.7933 3.80641 14.7933 3.39037C14.7933 1.30635 12.9725 1.9614 11.8485 2.8077C10.2911 3.98089 8.61573 6.35931 8.0008 7.63567Z" fill="var(--fill-0, #8E949C)"/>
</g>
</svg>
