<svg preserveAspectRatio="none" width="100%" height="100%" overflow="visible" style="display: block;" viewBox="0 0 16 16" fill="none" xmlns="http://www.w3.org/2000/svg">
<g id="IconTradingViewCandles">
<path id="Vector" d="M5.33333 2C5.33333 1.63181 5.03485 1.33333 4.66667 1.33333C4.29848 1.33333 4 1.63181 4 2V6H3.33333C2.59695 6 2 6.59695 2 7.33333V11.3333C2 12.0697 2.59695 12.6667 3.33333 12.6667H4V14C4 14.3682 4.29848 14.6667 4.66667 14.6667C5.03485 14.6667 5.33333 14.3682 5.33333 14V12.6667H6C6.7364 12.6667 7.33333 12.0697 7.33333 11.3333V7.33333C7.33333 6.59695 6.7364 6 6 6H5.33333V2Z" fill="var(--fill-0, #8E949C)"/>
<path id="Vector_2" d="M12 2C12 1.63181 11.7015 1.33333 11.3333 1.33333C10.9651 1.33333 10.6667 1.63181 10.6667 2V3.33333H10C9.2636 3.33333 8.66667 3.93029 8.66667 4.66667V11.3333C8.66667 12.0697 9.2636 12.6667 10 12.6667H10.6667V14C10.6667 14.3682 10.9651 14.6667 11.3333 14.6667C11.7015 14.6667 12 14.3682 12 14V12.6667H12.6667C13.4031 12.6667 14 12.0697 14 11.3333V4.66667C14 3.93029 13.4031 3.33333 12.6667 3.33333H12V2Z" fill="var(--fill-0, #8E949C)"/>
</g>
</svg>
