<svg preserveAspectRatio="none" width="100%" height="100%" overflow="visible" style="display: block;" viewBox="0 0 16 16" fill="none" xmlns="http://www.w3.org/2000/svg">
<g id="IconChart6">
<path id="Vector" d="M11.8932 2.00065C11.3409 2.00065 10.8932 2.44837 10.8932 3.00065V12.6667H9.55993V6.66733C9.55993 6.11503 9.1122 5.66732 8.55993 5.66732H7.4466C6.89433 5.66732 6.44661 6.11503 6.44661 6.66733V12.6667H5.11333V10.334C5.11333 9.78167 4.66562 9.334 4.11333 9.334H3C2.44771 9.334 2 9.78167 2 10.334V12.6667H1.33333C0.965146 12.6667 0.666666 12.9651 0.666666 13.3333C0.666666 13.7015 0.965146 14 1.33333 14H2.96357C2.97567 14.0004 2.98781 14.0007 3 14.0007H4.11333C4.12553 14.0007 4.13767 14.0004 4.14976 14H7.4102C7.42227 14.0004 7.4344 14.0007 7.4466 14.0007H8.55993C8.57213 14.0007 8.58427 14.0004 8.5964 14H11.8568C11.8689 14.0004 11.8811 14.0007 11.8932 14.0007H13.0065C13.0187 14.0007 13.0309 14.0004 13.043 14H14.6667C15.0349 14 15.3333 13.7015 15.3333 13.3333C15.3333 12.9651 15.0349 12.6667 14.6667 12.6667H14.0065V3.00065C14.0065 2.44837 13.5589 2.00065 13.0065 2.00065H11.8932Z" fill="var(--fill-0, #8E949C)"/>
</g>
</svg>
