<svg preserveAspectRatio="none" width="100%" height="100%" overflow="visible" style="display: block;" viewBox="0 0 16 16" fill="none" xmlns="http://www.w3.org/2000/svg">
<g id="IconChart4">
<path id="Vector" d="M10.8934 3C10.8934 2.44771 11.3411 2 11.8934 2H13.0067C13.559 2 14.0067 2.44771 14.0067 3V13C14.0067 13.5523 13.559 14 13.0067 14H11.8934C11.3411 14 10.8934 13.5523 10.8934 13V3Z" fill="var(--fill-0, #8E949C)"/>
<path id="Vector_2" d="M7.44647 5.66719C6.8942 5.66719 6.44648 6.1149 6.44648 6.6672V13.0005C6.44648 13.5528 6.8942 14.0005 7.44647 14.0005H8.5598C9.11207 14.0005 9.5598 13.5528 9.5598 13.0005V6.6672C9.5598 6.1149 9.11207 5.66719 8.5598 5.66719H7.44647Z" fill="var(--fill-0, #8E949C)"/>
<path id="Vector_3" d="M3 9.33438C2.44771 9.33438 2 9.78204 2 10.3344V13.001C2 13.5533 2.44771 14.001 3 14.001H4.11333C4.66562 14.001 5.11333 13.5533 5.11333 13.001V10.3344C5.11333 9.78204 4.66562 9.33438 4.11333 9.33438H3Z" fill="var(--fill-0, #8E949C)"/>
</g>
</svg>
