<svg preserveAspectRatio="none" width="100%" height="100%" overflow="visible" style="display: block;" viewBox="0 0 16 16" fill="none" xmlns="http://www.w3.org/2000/svg">
<g id="IconCoinStack">
<path id="Vector" d="M9.33333 12.6667C9.33333 13.4031 7.54247 14 5.33333 14C3.12419 14 1.33333 13.4031 1.33333 12.6667V10.8444C1.59637 11.0003 1.89037 11.1251 2.1888 11.2246C3.03957 11.5082 4.15121 11.6667 5.33333 11.6667C6.51545 11.6667 7.62707 11.5082 8.47787 11.2246C8.77633 11.1251 9.07033 11.0003 9.33333 10.8444V12.6667Z" fill="var(--fill-0, #8E949C)"/>
<path id="Vector_2" d="M14.6667 10C14.6667 10.7364 12.8758 11.3333 10.6667 11.3333C10.5201 11.3333 10.3755 11.33 10.2331 11.3249V9.26433L10.2305 9.2656C10.2258 9.16873 10.2105 9.07707 10.1881 8.99027C10.3461 8.996 10.5057 9 10.6667 9C11.8488 9 12.9604 8.84153 13.8112 8.55793C14.1097 8.45847 14.4037 8.33367 14.6667 8.17773V10Z" fill="var(--fill-0, #8E949C)"/>
<path id="Vector_3" d="M5.33333 8C7.54247 8 9.33333 8.59693 9.33333 9.33333C9.33333 10.0697 7.54247 10.6667 5.33333 10.6667C3.12419 10.6667 1.33333 10.0697 1.33333 9.33333C1.33333 8.59693 3.12419 8 5.33333 8Z" fill="var(--fill-0, #8E949C)"/>
<path id="Vector_4" d="M14.6667 6.66667C14.6667 7.40307 12.8758 8 10.6667 8C10.1864 8 9.72613 7.96967 9.29947 7.918C9.04067 7.762 8.74753 7.63673 8.4466 7.53647C8.02847 7.39707 7.545 7.28767 7.01953 7.21353C6.79327 7.0464 6.66667 6.86193 6.66667 6.66667V4.8444C6.92967 5.00035 7.22367 5.12513 7.52213 5.22461C8.37293 5.50819 9.48453 5.66667 10.6667 5.66667C11.8488 5.66667 12.9604 5.50819 13.8112 5.22461C14.1097 5.12513 14.4037 5.00035 14.6667 4.8444V6.66667Z" fill="var(--fill-0, #8E949C)"/>
<path id="Vector_5" d="M10.6667 2C12.8758 2 14.6667 2.59695 14.6667 3.33333C14.6667 4.06971 12.8758 4.66667 10.6667 4.66667C8.45753 4.66667 6.66667 4.06971 6.66667 3.33333C6.66667 2.59695 8.45753 2 10.6667 2Z" fill="var(--fill-0, #8E949C)"/>
</g>
</svg>
