<svg preserveAspectRatio="none" width="100%" height="100%" overflow="visible" style="display: block;" viewBox="0 0 16 16" fill="none" xmlns="http://www.w3.org/2000/svg">
<g id="IconCoinsAdd">
<path id="Vector" d="M4.33333 9.33333C4.33333 6.34257 6.65027 3.89295 9.58713 3.68148C8.73113 2.65397 7.44193 2 6 2C3.42267 2 1.33333 4.08934 1.33333 6.66667C1.33333 8.76467 2.71783 10.5393 4.62303 11.1269C4.43511 10.5632 4.33333 9.96013 4.33333 9.33333Z" fill="var(--fill-0, #8E949C)"/>
<path id="Vector_2" fill-rule="evenodd" clip-rule="evenodd" d="M10 14C12.5773 14 14.6667 11.9107 14.6667 9.33333C14.6667 6.756 12.5773 4.66667 10 4.66667C7.42267 4.66667 5.33333 6.756 5.33333 9.33333C5.33333 11.9107 7.42267 14 10 14ZM10.5 7.83333C10.5 7.5572 10.2761 7.33333 10 7.33333C9.72387 7.33333 9.5 7.5572 9.5 7.83333V8.83333H8.5C8.22387 8.83333 8 9.0572 8 9.33333C8 9.60947 8.22387 9.83333 8.5 9.83333H9.5V10.8333C9.5 11.1095 9.72387 11.3333 10 11.3333C10.2761 11.3333 10.5 11.1095 10.5 10.8333V9.83333H11.5C11.7761 9.83333 12 9.60947 12 9.33333C12 9.0572 11.7761 8.83333 11.5 8.83333H10.5V7.83333Z" fill="var(--fill-0, #8E949C)"/>
</g>
</svg>
