<svg preserveAspectRatio="none" width="100%" height="100%" overflow="visible" style="display: block;" viewBox="0 0 16 16" fill="none" xmlns="http://www.w3.org/2000/svg">
<g id="IconCrossMedium">
<path id="Vector" d="M11.1953 3.86193C11.4557 3.60158 11.8777 3.60158 12.138 3.86193C12.3983 4.12228 12.3983 4.54429 12.138 4.80464L8.94267 7.99993L12.138 11.1953C12.3983 11.4556 12.3983 11.8776 12.138 12.138C11.8777 12.3983 11.4557 12.3983 11.1953 12.138L8 8.94267L4.80468 12.138C4.54433 12.3983 4.12232 12.3983 3.86197 12.138C3.60162 11.8776 3.60162 11.4556 3.86197 11.1953L7.05727 7.99993L3.86197 4.80464C3.60162 4.54429 3.60162 4.12228 3.86197 3.86193C4.12232 3.60158 4.54433 3.60158 4.80468 3.86193L8 7.05727L11.1953 3.86193Z" fill="var(--fill-0, #8E949C)"/>
</g>
</svg>
