<svg preserveAspectRatio="none" width="100%" height="100%" overflow="visible" style="display: block;" viewBox="0 0 16 16" fill="none" xmlns="http://www.w3.org/2000/svg">
<g id="IconGovernment" clip-path="url(#clip0_0_33)">
<path id="Vector" fill-rule="evenodd" clip-rule="evenodd" d="M9.5 -2.38419e-07C9.77613 -2.38419e-07 10 0.223857 10 0.5V1.5L9.9974 1.55143C9.97167 1.80341 9.7588 2 9.5 2H8.5V2.6888C11.1309 2.9059 13.2789 4.81913 13.8496 7.33333H14.1667C14.4428 7.33333 14.6667 7.5572 14.6667 7.83333C14.6667 8.10947 14.4428 8.33333 14.1667 8.33333H13.9903C13.9963 8.44367 14 8.5548 14 8.66667V13H14.1667C14.4428 13 14.6667 13.2239 14.6667 13.5C14.6667 13.7761 14.4428 14 14.1667 14H1.83333C1.55719 14 1.33333 13.7761 1.33333 13.5C1.33333 13.2239 1.55719 13 1.83333 13H2V8.66667C2 8.5548 2.00372 8.44367 2.00977 8.33333H1.83333C1.55719 8.33333 1.33333 8.10947 1.33333 7.83333C1.33333 7.5572 1.55719 7.33333 1.83333 7.33333H2.15039C2.72106 4.81913 4.86913 2.9059 7.5 2.6888V0.5C7.5 0.223857 7.72387 -2.38419e-07 8 -2.38419e-07H9.5ZM3.01237 8.33333C3.00511 8.44353 3 8.5546 3 8.66667V13H5.66667V8.33333H3.01237ZM6.66667 8.33333V13H9.33333V8.33333H6.66667ZM10.3333 8.33333V13H13V8.66667C13 8.5546 12.9949 8.44353 12.9876 8.33333H10.3333Z" fill="var(--fill-0, #8E949C)"/>
</g>
<defs>
<clipPath id="clip0_0_33">
<rect width="16" height="16" fill="white"/>
</clipPath>
</defs>
</svg>
