<svg preserveAspectRatio="none" width="100%" height="100%" overflow="visible" style="display: block;" viewBox="0 0 16 16" fill="none" xmlns="http://www.w3.org/2000/svg">
<g id="IconLayoutGrid1">
<path id="Vector" d="M13.272 2.14533C13.0911 2.05313 12.9112 2.02375 12.7588 2.0113C12.6201 1.99996 12.4562 1.99998 12.2879 2L9.33333 2.00001C8.96513 2.00001 8.66667 2.29848 8.66667 2.66667V8C8.66667 8.3682 8.96513 8.66667 9.33333 8.66667H13.3333C13.7015 8.66667 14 8.3682 14 8V3.71207C14 3.54381 14.0001 3.37995 13.9887 3.24119C13.9763 3.08879 13.9469 2.90897 13.8547 2.72801C13.7269 2.47713 13.5229 2.27316 13.272 2.14533Z" fill="var(--fill-0, #D3DAE4)"/>
<path id="Vector_2" d="M3.71207 2C3.54382 1.99998 3.37995 1.99996 3.24119 2.0113C3.08879 2.02375 2.90897 2.05313 2.72801 2.14533C2.47713 2.27316 2.27316 2.47713 2.14533 2.72801C2.05313 2.90897 2.02375 3.08879 2.0113 3.24119C1.99996 3.37995 1.99998 3.54381 2 3.71206L2.00001 5.33334C2.00001 5.70153 2.29848 6.00001 2.66667 6.00001H6.66667C7.03487 6.00001 7.33333 5.70153 7.33333 5.33334V2.66667C7.33333 2.29848 7.03487 2.00001 6.66667 2.00001L3.71207 2Z" fill="var(--fill-0, #D3DAE4)"/>
<path id="Vector_3" d="M9.33333 10C8.96513 10 8.66667 10.2985 8.66667 10.6667V13.3333C8.66667 13.7015 8.96513 14 9.33333 14H12.2879C12.4562 14 12.6201 14.0001 12.7588 13.9887C12.9112 13.9763 13.0911 13.9469 13.272 13.8547C13.5229 13.7269 13.7269 13.5229 13.8547 13.272C13.9469 13.0911 13.9763 12.9112 13.9887 12.7588C14.0001 12.6201 14 12.4562 14 12.2879V10.6667C14 10.2985 13.7015 10 13.3333 10H9.33333Z" fill="var(--fill-0, #D3DAE4)"/>
<path id="Vector_4" d="M2.66667 7.33333C2.29848 7.33333 2.00001 7.6318 2.00001 8L2 12.2879C1.99998 12.4562 1.99996 12.6201 2.0113 12.7588C2.02375 12.9112 2.05313 13.0911 2.14533 13.272C2.27316 13.5229 2.47713 13.7269 2.72801 13.8547C2.90897 13.9469 3.08879 13.9763 3.24119 13.9887C3.37996 14.0001 3.54383 14 3.71208 14H6.66667C7.03487 14 7.33333 13.7015 7.33333 13.3333V8C7.33333 7.6318 7.03487 7.33333 6.66667 7.33333H2.66667Z" fill="var(--fill-0, #D3DAE4)"/>
</g>
</svg>
