<svg preserveAspectRatio="none" width="100%" height="100%" overflow="visible" style="display: block;" viewBox="0 0 16 16" fill="none" xmlns="http://www.w3.org/2000/svg">
<g id="IconHomeLine">
<path id="Vector" d="M2.66641 6.17372C2.66641 5.98721 2.66641 5.89396 2.68995 5.80773C2.71081 5.73135 2.74511 5.65929 2.79124 5.59493C2.84331 5.52229 2.91569 5.46348 3.06044 5.34587L7.32714 1.8792C7.56687 1.68439 7.68674 1.58699 7.82001 1.54968C7.93761 1.51677 8.06187 1.51677 8.17947 1.54968C8.31274 1.58699 8.43261 1.68439 8.67234 1.8792L12.939 5.34587C13.0838 5.46348 13.1561 5.52229 13.2083 5.59493C13.2544 5.65929 13.2887 5.73135 13.3095 5.80773C13.3331 5.89396 13.3331 5.98721 13.3331 6.17372V12.266C13.3331 12.6394 13.3331 12.8261 13.2604 12.9687C13.1965 13.0941 13.0945 13.1961 12.9691 13.26C12.8265 13.3327 12.6398 13.3327 12.2664 13.3327H3.73307C3.35971 13.3327 3.17302 13.3327 3.03041 13.26C2.90497 13.1961 2.80299 13.0941 2.73907 12.9687C2.66641 12.8261 2.66641 12.6394 2.66641 12.266V6.17372Z" stroke="var(--stroke-0, #8E949C)" stroke-width="1.33333" stroke-linecap="round"/>
<path id="Vector_2" d="M5.33359 10.6656H10.6669" stroke="var(--stroke-0, #8E949C)" stroke-width="1.33333" stroke-linecap="round"/>
</g>
</svg>
