<svg preserveAspectRatio="none" width="100%" height="100%" overflow="visible" style="display: block;" viewBox="0 0 16 16" fill="none" xmlns="http://www.w3.org/2000/svg">
<g id="IconProjects">
<path id="Vector" d="M13.3133 6.66667C14.1807 6.66667 14.8173 7.48207 14.6069 8.3236L13.4402 12.9903C13.2917 13.5837 12.7583 14 12.1466 14H3.85491C3.2432 13.9999 2.70975 13.5837 2.56129 12.9903L1.39462 8.3236C1.18426 7.48207 1.82087 6.66673 2.68824 6.66667H13.3133Z" fill="var(--fill-0, #8E949C)"/>
<path id="Vector_2" d="M12.6674 4.33333C13.0356 4.33333 13.3341 4.63181 13.3341 5C13.3341 5.36819 13.0356 5.66667 12.6674 5.66667H3.33407C2.96593 5.66661 2.66741 5.36816 2.66741 5C2.66741 4.63184 2.96593 4.33339 3.33407 4.33333H12.6674Z" fill="var(--fill-0, #8E949C)"/>
<path id="Vector_3" d="M11.3341 2C11.7023 2 12.0007 2.29848 12.0007 2.66667C12.0007 3.03485 11.7023 3.33333 11.3341 3.33333H4.66741C4.29926 3.33328 4.00074 3.03483 4.00074 2.66667C4.00074 2.29851 4.29926 2.00005 4.66741 2H11.3341Z" fill="var(--fill-0, #8E949C)"/>
</g>
</svg>
