<svg preserveAspectRatio="none" width="100%" height="100%" overflow="visible" style="display: block;" viewBox="0 0 16 16" fill="none" xmlns="http://www.w3.org/2000/svg">
<g id="IconScriptAi">
<path id="Vector" d="M8 10.6667C8.7364 10.6667 9.33333 11.2636 9.33333 12C9.33333 12.8533 9.86867 13.5794 10.6211 13.8665C10.6481 13.8769 10.6666 13.9027 10.6667 13.9317C10.6667 13.9693 10.636 14 10.5983 14H3.33333C2.22877 14 1.33333 13.1046 1.33333 12C1.33333 11.2636 1.93029 10.6667 2.66667 10.6667H8Z" fill="var(--fill-0, #D3DAE4)"/>
<path id="Vector_2" d="M11.6693 2C11.4595 2.27878 11.3333 2.62421 11.3333 3V12.6667C11.3333 13.0348 11.0169 13.3473 10.694 13.1706C10.2805 12.9442 10 12.5047 10 12C10 10.8954 9.1046 10 8 10H3.33333V7.96747C3.52752 8.09413 3.75747 8.16667 4 8.16667C4.50547 8.16667 4.95852 7.85527 5.13997 7.38347L5.4987 6.45247C5.54949 6.32043 5.65376 6.21615 5.78581 6.16537L6.7168 5.80664C7.1886 5.62519 7.5 5.17213 7.5 4.66667C7.5 4.1612 7.1886 3.70815 6.7168 3.52669L5.78581 3.16797C5.65376 3.11718 5.54949 3.01291 5.4987 2.88086L5.16211 2.00781C5.21857 2.00303 5.27564 2 5.33333 2H11.6693Z" fill="var(--fill-0, #D3DAE4)"/>
<path id="Vector_3" d="M4 2C4.16063 2 4.30493 2.0988 4.36263 2.2487L4.7207 3.18034C4.85613 3.53237 5.1343 3.81053 5.48633 3.94597L6.41797 4.30403C6.56787 4.36173 6.66667 4.50604 6.66667 4.66667C6.66667 4.82729 6.56787 4.9716 6.41797 5.0293L5.48633 5.38737C5.1343 5.5228 4.85614 5.80097 4.7207 6.15299L4.36263 7.08467C4.30493 7.23453 4.16063 7.33333 4 7.33333C3.83937 7.33333 3.69507 7.23453 3.63737 7.08467L3.2793 6.15299C3.14386 5.80097 2.8657 5.52281 2.51367 5.38737L1.58203 5.0293C1.43213 4.9716 1.33333 4.82729 1.33333 4.66667C1.33333 4.50604 1.43213 4.36173 1.58203 4.30403L2.51367 3.94597C2.8657 3.81053 3.14386 3.53237 3.2793 3.18034L3.63737 2.2487C3.69507 2.0988 3.83937 2 4 2Z" fill="var(--fill-0, #D3DAE4)"/>
<path id="Vector_4" d="M13 2C13.5523 2 14 2.44771 14 3V4.66667C14 5.40305 13.4031 6 12.6667 6H12V3C12 2.44771 12.4477 2 13 2Z" fill="var(--fill-0, #D3DAE4)"/>
</g>
</svg>
