<svg preserveAspectRatio="none" width="100%" height="100%" overflow="visible" style="display: block;" viewBox="0 0 16 16" fill="none" xmlns="http://www.w3.org/2000/svg">
<g id="IconSearchMenu">
<path id="Vector" fill-rule="evenodd" clip-rule="evenodd" d="M10.0026 3.33333C7.42527 3.33333 5.33594 5.42267 5.33594 8C5.33594 10.5773 7.42527 12.6667 10.0026 12.6667C11.0501 12.6667 12.0171 12.3215 12.7959 11.7387L14.1953 13.1381C14.4556 13.3984 14.8777 13.3984 15.1381 13.1381C15.3984 12.8777 15.3984 12.4556 15.1381 12.1953L13.7391 10.7963C14.3232 10.0169 14.6693 9.04887 14.6693 8C14.6693 5.42267 12.5799 3.33333 10.0026 3.33333ZM10 6C8.8954 6 8 6.8954 8 8C8 8.3682 7.70153 8.66667 7.33333 8.66667C6.96513 8.66667 6.66667 8.3682 6.66667 8C6.66667 6.15905 8.15907 4.66667 10 4.66667C10.3682 4.66667 10.6667 4.96515 10.6667 5.33333C10.6667 5.70152 10.3682 6 10 6Z" fill="var(--fill-0, #D3DAE4)"/>
<path id="Vector_2" d="M1.33594 4.66667C1.33594 4.29848 1.63441 4 2.00261 4H4.00261C4.37079 4 4.66927 4.29848 4.66927 4.66667C4.66927 5.03485 4.37079 5.33333 4.00261 5.33333H2.00261C1.63441 5.33333 1.33594 5.03485 1.33594 4.66667Z" fill="var(--fill-0, #D3DAE4)"/>
<path id="Vector_3" d="M1.33594 8C1.33594 7.6318 1.63441 7.33333 2.00261 7.33333H3.33594C3.70413 7.33333 4.00261 7.6318 4.00261 8C4.00261 8.3682 3.70413 8.66667 3.33594 8.66667H2.00261C1.63441 8.66667 1.33594 8.3682 1.33594 8Z" fill="var(--fill-0, #D3DAE4)"/>
<path id="Vector_4" d="M2.00261 10.6667C1.63441 10.6667 1.33594 10.9651 1.33594 11.3333C1.33594 11.7015 1.63441 12 2.00261 12H4.00261C4.37079 12 4.66927 11.7015 4.66927 11.3333C4.66927 10.9651 4.37079 10.6667 4.00261 10.6667H2.00261Z" fill="var(--fill-0, #D3DAE4)"/>
</g>
</svg>
