<svg preserveAspectRatio="none" width="100%" height="100%" overflow="visible" style="display: block;" viewBox="0 0 16 16" fill="none" xmlns="http://www.w3.org/2000/svg">
<g id="IconSparkles3Bold">
<path id="Vector" d="M5.3332 9.33281C5.4537 9.33281 5.56144 9.40721 5.60469 9.51968L5.92695 10.3563C5.99467 10.5323 6.13372 10.6713 6.30976 10.7391L7.14634 11.0613C7.2588 11.1046 7.3332 11.2123 7.3332 11.3328C7.3332 11.4533 7.2588 11.561 7.14634 11.6043L6.30976 11.9265C6.13372 11.9943 5.99467 12.1333 5.92695 12.3093L5.60469 13.1459C5.56144 13.2584 5.4537 13.3328 5.3332 13.3328C5.21271 13.3328 5.10497 13.2584 5.06172 13.1459L4.73946 12.3093C4.67174 12.1333 4.53268 11.9943 4.35664 11.9265L3.52005 11.6043C3.40759 11.561 3.3332 11.4533 3.3332 11.3328C3.3332 11.2123 3.40759 11.1046 3.52005 11.0613L4.35664 10.7391C4.53268 10.6713 4.67174 10.5323 4.73946 10.3563L5.06172 9.51968C5.10497 9.40721 5.21271 9.33281 5.3332 9.33281Z" fill="var(--fill-0, #8E949C)"/>
<path id="Vector_2" d="M10.6668 4C10.9077 4 11.1239 4.14826 11.2104 4.37305L11.9604 6.32357C12.0281 6.49955 12.1673 6.63866 12.3432 6.7064L14.2937 7.4564C14.5185 7.54293 14.6668 7.75913 14.6668 8C14.6668 8.24087 14.5185 8.45707 14.2937 8.5436L12.3432 9.2936C12.1673 9.36133 12.0281 9.50047 11.9604 9.6764L11.2104 11.6269C11.1239 11.8517 10.9077 12 10.6668 12C10.4259 12 10.2097 11.8517 10.1232 11.6269L9.3732 9.6764C9.30546 9.50047 9.16633 9.36133 8.9904 9.2936L7.03986 8.5436C6.81506 8.45707 6.6668 8.24087 6.6668 8C6.6668 7.75913 6.81506 7.54293 7.03986 7.4564L8.9904 6.7064C9.16633 6.63866 9.30546 6.49955 9.3732 6.32357L10.1232 4.37305C10.2097 4.14826 10.4259 4 10.6668 4Z" fill="var(--fill-0, #8E949C)"/>
<path id="Vector_3" d="M3.99987 2.66719C4.1605 2.66719 4.3048 2.76599 4.3625 2.91589L4.82669 4.12422C4.89441 4.30015 5.03358 4.43931 5.2095 4.50703L6.41784 4.97122C6.56774 5.02892 6.66654 5.17323 6.66654 5.33385C6.66654 5.49448 6.56774 5.63879 6.41784 5.69649L5.2095 6.16067C5.03358 6.22839 4.89441 6.36756 4.82669 6.54349L4.3625 7.75185C4.3048 7.90172 4.1605 8.00052 3.99987 8.00052C3.83924 8.00052 3.69494 7.90172 3.63724 7.75185L3.17305 6.54349C3.10533 6.36756 2.96616 6.22839 2.79024 6.16067L1.5819 5.69649C1.432 5.63879 1.3332 5.49448 1.3332 5.33385C1.3332 5.17323 1.432 5.02892 1.5819 4.97122L2.79024 4.50703C2.96616 4.43931 3.10533 4.30015 3.17305 4.12422L3.63724 2.91589C3.69494 2.76599 3.83924 2.66719 3.99987 2.66719Z" fill="var(--fill-0, #8E949C)"/>
</g>
</svg>
