<svg preserveAspectRatio="none" width="100%" height="100%" overflow="visible" style="display: block;" viewBox="0 0 16 16" fill="none" xmlns="http://www.w3.org/2000/svg">
<g id="IconArrowsRepeatRightLeft">
<path id="Vector" d="M11.0286 1.52859C11.2889 1.26825 11.7111 1.26825 11.9714 1.52859L13.7357 3.29289C14.1262 3.68342 14.1262 4.31658 13.7357 4.70711L11.9714 6.47141C11.7111 6.73173 11.2889 6.73173 11.0286 6.47141C10.7683 6.21105 10.7683 5.78895 11.0286 5.52859L11.8905 4.66667H3.33333V7.33333C3.33333 7.70153 3.03485 8 2.66667 8C2.29848 8 2 7.70153 2 7.33333V4.66667C2 3.93029 2.59695 3.33333 3.33333 3.33333H11.8905L11.0286 2.47141C10.7683 2.21105 10.7683 1.78895 11.0286 1.52859Z" fill="var(--fill-0, #D3DAE4)"/>
<path id="Vector_2" d="M14 8.66667C14 8.29847 13.7015 8 13.3333 8C12.9651 8 12.6667 8.29847 12.6667 8.66667V11.3333H4.10943L4.97135 10.4714C5.23171 10.2111 5.23171 9.78893 4.97135 9.5286C4.71101 9.26827 4.28889 9.26827 4.02855 9.5286L2.26425 11.2929C1.87372 11.6834 1.87372 12.3166 2.26425 12.7071L4.02855 14.4714C4.28889 14.7317 4.71101 14.7317 4.97135 14.4714C5.23171 14.2111 5.23171 13.7889 4.97135 13.5286L4.10943 12.6667H12.6667C13.4031 12.6667 14 12.0697 14 11.3333V8.66667Z" fill="var(--fill-0, #D3DAE4)"/>
</g>
</svg>
