<svg preserveAspectRatio="none" width="100%" height="100%" overflow="visible" style="display: block;" viewBox="0 0 16 16" fill="none" xmlns="http://www.w3.org/2000/svg">
<g id="IconTelescope">
<path id="Vector" d="M10.023 3.01795C9.33102 3.26981 8.97422 4.03493 9.22609 4.72691L10.4802 8.17242C10.732 8.86442 11.4972 9.22122 12.1892 8.96935L15.3214 7.82929C15.6674 7.70335 15.8458 7.32075 15.7199 6.97482L14.0098 2.27634C13.8839 1.93035 13.5013 1.75196 13.1553 1.87789L10.023 3.01795Z" fill="var(--fill-0, #8E949C)"/>
<path id="Vector_2" d="M4.64144 6.75154C4.45255 6.23254 4.72013 5.6587 5.23911 5.46981L8.05817 4.44375L9.7683 9.14221L7.99943 9.78601V12.6673H9.33277C9.70097 12.6673 9.99943 12.9657 9.99943 13.3339C9.99943 13.7021 9.70097 14.0006 9.33277 14.0006H5.33279C4.96459 14.0006 4.66612 13.7021 4.66612 13.3339C4.66612 12.9657 4.96459 12.6673 5.33279 12.6673H6.66612V10.2271C6.23607 10.2527 5.82238 9.99614 5.6675 9.57061L4.64144 6.75154Z" fill="var(--fill-0, #8E949C)"/>
<path id="Vector_3" d="M0.79769 8.85949C0.608796 8.34049 0.876383 7.76662 1.39536 7.57775L3.58798 6.77969L4.84205 10.2252L2.64944 11.0233C2.13046 11.2122 1.55662 10.9446 1.36772 10.4256L0.79769 8.85949Z" fill="var(--fill-0, #8E949C)"/>
</g>
</svg>
