<svg preserveAspectRatio="none" width="100%" height="100%" overflow="visible" style="display: block;" viewBox="0 0 16 16" fill="none" xmlns="http://www.w3.org/2000/svg">
<g id="IconTrending4">
<path id="Vector" fill-rule="evenodd" clip-rule="evenodd" d="M2 2.66667C2.36819 2.66667 2.66667 2.96515 2.66667 3.33333V12H14C14.3682 12 14.6667 12.2985 14.6667 12.6667C14.6667 13.0349 14.3682 13.3333 14 13.3333H2.66667C1.93029 13.3333 1.33333 12.7364 1.33333 12V3.33333C1.33333 2.96515 1.63181 2.66667 2 2.66667ZM10 5.33333C9.6318 5.33333 9.33333 5.03485 9.33333 4.66667C9.33333 4.29848 9.6318 4 10 4H12.6667C13.0349 4 13.3333 4.29848 13.3333 4.66667V7.33333C13.3333 7.70153 13.0349 8 12.6667 8C12.2985 8 12 7.70153 12 7.33333V6.27614L9.60947 8.66667C9.0888 9.18733 8.24453 9.1874 7.72387 8.66667L7.33333 8.27613L5.13807 10.4714C4.87772 10.7317 4.45561 10.7317 4.19526 10.4714C3.93491 10.2111 3.93491 9.78893 4.19526 9.5286L6.39053 7.33333C6.9112 6.8126 7.75547 6.81267 8.27613 7.33333L8.66667 7.72387L11.0572 5.33333H10Z" fill="var(--fill-0, #D3DAE4)"/>
</g>
</svg>
